nColumns=19
nRows=98
DataType=double
version=3
OpenSimVersion=4.1
endheader
time	ground_force_calcn_r_vx	ground_force_calcn_r_vy	ground_force_calcn_r_vz	ground_force_calcn_r_px	ground_force_calcn_r_py	ground_force_calcn_r_pz	ground_force_calcn_r_mx	ground_force_calcn_r_my	ground_force_calcn_r_mz	ground_force_calcn_l_vx	ground_force_calcn_l_vy	ground_force_calcn_l_vz	ground_force_calcn_l_px	ground_force_calcn_l_py	ground_force_calcn_l_pz	ground_force_calcn_l_mx	ground_force_calcn_l_my	ground_force_calcn_l_mz
2.75	-152.464	1449.77	-17.1104	0.810001	0	-0.281884	-0.229272	2.18013	-0.0257303	0	0	0	0	0	0	0	0	0
2.76	-126.279	1442.09	-57.0095	0.78263	0	-0.279718	0.0259452	-0.296291	0.0117131	0	0	0	0	0	0	0	0	0
2.77	-101.858	1413.1	-79.0286	0.750454	0	-0.278302	0.21166	-2.93642	0.164221	0	0	0	0	0	0	0	0	0
2.78	-69.5622	1385.11	-57.0628	0.709735	0	-0.277163	0.21963	-4.37322	0.180165	0	0	0	0	0	0	0	0	0
2.79	-15.2574	1346.94	-32.9671	0.661152	0	-0.27646	0.0490103	-4.32671	0.105898	0	0	0	0	0	0	0	0	0
2.8	58.2548	1286	-20.3036	0.609213	0	-0.276426	-0.160242	-3.53742	0.0558494	0	0	0	0	0	0	0	0	0
2.81	132.755	1200.92	-4.38667	0.559128	0	-0.276968	-0.329282	-2.97873	0.0108806	0	0	0	0	0	0	0	0	0
2.82	199.169	1088.26	20.0621	0.513633	0	-0.277818	-0.563911	-3.08122	-0.0568022	0	0	0	0	0	0	0	0	0
2.83	249.492	938.378	47.4525	0.472589	0	-0.278715	-0.932576	-3.50757	-0.177373	0	0	0	0	0	0	0	0	0
2.84	264.543	746.634	67.2807	0.433653	0	-0.27938	-1.27945	-3.61106	-0.3254	0	0	0	0	0	0	0	0	0
2.85	230.105	524.272	68.6764	0.391786	0	-0.279357	-1.33404	-3.03949	-0.398154	0	0	0	0	0	0	0	0	0
2.86	166.36	310.912	50.6676	0.335517	0	-0.2771	-0.932389	-1.74256	-0.283974	0	0	0	0	0	0	0	0	0
2.87	101.801	154.418	26.4046	0.229553	0	-0.263735	0.083499	0.126656	0.0216575	0	0	0	0	0	0	0	0	0
2.88	49.1167	67.4138	9.35939	-0.175167	0	-0.164366	1.54284	2.11759	0.293995	0	0	0	0	0	0	0	0	0
2.89	14.5839	27.8049	1.01929	-0.00166248	0	-0.000992	-1.61068e-18	-3.07085e-18	-1.12573e-19	0	0	0	0	0	0	0	0	0
2.9	-0.868627	12.7078	-2.28448	-0.00166249	0	-0.000991961	-0	0	-0	0	0	0	0	0	0	0	0	0
2.91	0	0	0	0	0	0	0	0	0	0	0	0	0	0	0	0	0	0
2.92	0	0	0	0	0	0	0	0	0	0	0	0	0	0	0	0	0	0
2.93	0	0	0	0	0	0	0	0	0	0	0	0	0	0	0	0	0	0
2.94	0	0	0	0	0	0	0	0	0	-1.45941	11.6906	-4.46582	-0.00166328	0	-0.000989917	1.98189e-19	-1.58759e-18	6.06461e-19
2.95	0	0	0	0	0	0	0	0	0	-2.02822	31.4619	-2.88279	1.03852	0	-0.328996	-0.246656	3.82614	-0.350582
2.96	0	0	0	0	0	0	0	0	0	-5.01016	112.239	-7.1418	0.919579	0	-0.350175	-0.0817297	1.83093	-0.116503
2.97	0	0	0	0	0	0	0	0	0	-10.6406	344.428	-15.536	0.949318	0	-0.332172	0.037386	-1.21016	0.0545865
2.98	0	0	0	0	0	0	0	0	0	-30.6137	745.96	-4.33084	0.95152	0	-0.327	0.183129	-4.46228	0.0259068
2.99	0	0	0	0	0	0	0	0	0	-79.1828	1087.1	27.5834	0.948599	0	-0.324501	0.537472	-7.37898	-0.187229
3	0	0	0	0	0	0	0	0	0	-139.084	1154.18	11.3927	0.939647	0	-0.324244	1.09708	-9.10403	-0.0898648
3.01	0	0	0	0	0	0	0	0	0	-182.26	1084.28	-68.1138	0.919954	0	-0.326531	1.51986	-9.04173	0.567997
3.02	0	0	0	0	0	0	0	0	0	-197.437	1076.79	-74.7977	0.886353	0	-0.33066	1.47497	-8.04423	0.558783
3.03	0	0	0	0	0	0	0	0	0	-182.165	1159.71	35.5983	0.84335	0	-0.334297	1.16184	-7.39661	-0.227045
3.04	0	0	0	0	0	0	0	0	0	-140.566	1260.2	106.037	0.801439	0	-0.336511	0.798172	-7.15574	-0.602107
3.05	0	0	0	0	0	0	0	0	0	-92.6437	1318.34	62.6931	0.765949	0	-0.338106	0.454963	-6.47423	-0.307879
3.06	0	0	0	0	0	0	0	0	0	-57.259	1335.02	17.3694	0.734947	0	-0.339398	0.202482	-4.72094	-0.0614225
3.07	0	0	0	0	0	0	0	0	0	-29.8708	1331.73	37.4199	0.704272	0	-0.340228	0.0620932	-2.76831	-0.0777856
3.08	0	0	0	0	0	0	0	0	0	1.40845	1309.71	58.5539	0.670434	0	-0.340612	-0.00201495	-1.8737	-0.0837685
3.09	0	0	0	0	0	0	0	0	0	39.3589	1259.82	42.4829	0.631719	0	-0.340554	-0.0741753	-2.37424	-0.0800627
3.1	0	0	0	0	0	0	0	0	0	87.812	1180.67	18.7366	0.588154	0	-0.339848	-0.268511	-3.61025	-0.0572927
3.11	0	0	0	0	0	0	0	0	0	149.81	1069.65	0.680253	0.541491	0	-0.338433	-0.642627	-4.58837	-0.00291802
3.12	0	0	0	0	0	0	0	0	0	208.046	925.695	-17.8556	0.494451	0	-0.336614	-1.00384	-4.46656	0.0861549
3.13	0	0	0	0	0	0	0	0	0	231.124	751.73	-32.9936	0.448828	0	-0.334688	-0.854693	-2.77989	0.12201
3.14	0	0	0	0	0	0	0	0	0	208.866	553.034	-41.8469	0.402902	0	-0.3325	0.187207	0.495686	-0.0375075
3.15	0	0	0	0	0	0	0	0	0	159.065	353.048	-46.235	0.348765	0	-0.328163	2.11923	4.70369	-0.615992
3.16	0	0	0	0	0	0	0	0	0	105.841	190.589	-40.6508	0.264444	0	-0.314487	4.43943	7.99411	-1.70507
3.17	0	0	0	0	0	0	0	0	0	58.3018	88.3454	-24.6477	0.0548363	0	-0.273141	5.71933	8.66656	-2.4179
3.18	0	0	0	0	0	0	0	0	0	20.8094	38.04	-8.71724	-2.0765	0	0.557492	4.27211	7.80949	-1.78962
3.19	0	0	0	0	0	0	0	0	0	-0.397086	16.5801	-1.02554	-0.00166345	0	-0.00098875	-8.29096e-20	3.46184e-18	-2.14128e-19
3.2	0	0	0	0	0	0	0	0	0	0	0	0	0	0	0	0	0	0
3.21	0	0	0	0	0	0	0	0	0	0	0	0	0	0	0	0	0	0
3.22	0	0	0	0	0	0	0	0	0	0	0	0	0	0	0	0	0	0
3.23	0	0	0	0	0	0	0	0	0	0	0	0	0	0	0	0	0	0
3.24	-2.87291	19.7252	-4.24185	-0.0016628	0	-0.000990114	-0	0	-0	0	0	0	0	0	0	0	0	0
3.25	1.07491	65.2747	-3.34065	5.08602	0	-1.21094	-0.0278685	-1.69234	0.0866113	0	0	0	0	0	0	0	0	0
3.26	10.0202	228.48	-14.0948	0.949076	0	-0.277909	-0.0534949	-1.21979	0.0752484	0	0	0	0	0	0	0	0	0
3.27	13.1611	593.71	-30.6614	0.95839	0	-0.280399	0.0443802	2.00204	-0.103393	0	0	0	0	0	0	0	0	0
3.28	-29.6036	1038.49	-9.73476	0.959498	0	-0.281723	-0.162734	5.70871	-0.0535131	0	0	0	0	0	0	0	0	0
3.29	-127.888	1251.07	56.591	0.957296	0	-0.283088	-0.74756	7.31304	0.330798	0	0	0	0	0	0	0	0	0
3.3	-223.837	1200.29	78.0148	0.948947	0	-0.284422	-1.16275	6.23505	0.405258	0	0	0	0	0	0	0	0	0
3.31	-274.707	1158.49	4.44028	0.9279	0	-0.284688	-0.960942	4.05245	0.0155323	0	0	0	0	0	0	0	0	0
3.32	-267.913	1247.93	-59.6222	0.891941	0	-0.283181	-0.515648	2.40187	-0.114754	0	0	0	0	0	0	0	0	0
3.33	-225.92	1397.02	-43.416	0.851008	0	-0.280705	-0.257831	1.59435	-0.0495485	0	0	0	0	0	0	0	0	0
3.34	-175.111	1504.86	-17.5486	0.813928	0	-0.278587	-0.104388	0.897087	-0.0104612	0	0	0	0	0	0	0	0	0
3.35	-126.185	1536.77	-32.7898	0.779495	0	-0.277401	0.0152097	-0.185235	0.00395232	0	0	0	0	0	0	0	0	0
3.36	-75.712	1511.19	-49.0424	0.742405	0	-0.276943	0.0621103	-1.23971	0.040232	0	0	0	0	0	0	0	0	0
3.37	-10.4066	1458.26	-39.0252	0.698947	0	-0.276876	0.0111904	-1.56811	0.0419648	0	0	0	0	0	0	0	0	0
3.38	71.6154	1389.67	-20.7882	0.649453	0	-0.277004	-0.0564018	-1.09445	0.0163721	0	0	0	0	0	0	0	0	0
3.39	152.883	1299.59	-3.99281	0.598009	0	-0.277252	-0.0606063	-0.515187	0.00158284	0	0	0	0	0	0	0	0	0
3.4	216.869	1175.87	13.4101	0.549228	0	-0.277624	-0.108667	-0.589198	-0.00671945	0	0	0	0	0	0	0	0	0
3.41	259.14	1006.41	32.6386	0.505277	0	-0.27809	-0.338749	-1.31559	-0.0426655	0	0	0	0	0	0	0	0	0
3.42	267.274	791.381	50.0726	0.465627	0	-0.278385	-0.622971	-1.84458	-0.116711	0	0	0	0	0	0	0	0	0
3.43	229.817	555.226	53.6129	0.427318	0	-0.277613	-0.534454	-1.29121	-0.12468	0	0	0	0	0	0	0	0	0
3.44	163.083	339.283	35.6865	0.382021	0	-0.27336	0.18718	0.389414	0.0409594	0	0	0	0	0	0	0	0	0
3.45	99.2109	177.583	8.90106	0.299989	0	-0.257847	1.29898	2.32511	0.116543	0	0	0	0	0	0	0	0	0
3.46	51.2691	78.6856	-4.3706	-0.0563626	0	-0.181641	2.1695	3.32965	-0.184946	0	0	0	0	0	0	0	0	0
3.47	17.6107	31.8861	-0.925299	1.02418	0	-0.407032	1.97901	3.5832	-0.103981	0	0	0	0	0	0	0	0	0
3.48	-0.783986	13.6052	2.5746	-0.0016631	0	-0.000988312	9.80617e-20	-1.70175e-18	-3.22033e-19	0	0	0	0	0	0	0	0	0
3.49	0	0	0	0	0	0	0	0	0	0	0	0	0	0	0	0	0	0
3.5	0	0	0	0	0	0	0	0	0	0	0	0	0	0	0	0	0	0
3.51	0	0	0	0	0	0	0	0	0	0	0	0	0	0	0	0	0	0
3.52	0	0	0	0	0	0	0	0	0	-3.09578	10.0461	-2.03022	-0.00166375	0	-0.000986626	-3.63888e-19	1.18085e-18	-2.38638e-19
3.53	0	0	0	0	0	0	0	0	0	-4.34244	14.3545	-4.09302	-0.00166376	0	-0.000986555	-0	0	-0
3.54	0	0	0	0	0	0	0	0	0	-2.01863	45.3681	-3.97291	1.09473	0	-0.28988	-0.0685129	1.53981	-0.134842
3.55	0	0	0	0	0	0	0	0	0	2.5801	174.519	-13.1995	0.979889	0	-0.327756	0.000630405	0.0426408	-0.00322507
3.56	0	0	0	0	0	0	0	0	0	0.366587	493.095	-28.179	0.989535	0	-0.319121	-0.000904997	-1.21731	0.0695658
3.57	0	0	0	0	0	0	0	0	0	-37.926	934.315	-23.5241	0.98953	0	-0.315678	0.118096	-2.90932	0.0732506
3.58	0	0	0	0	0	0	0	0	0	-117.841	1197.58	-8.42848	0.986048	0	-0.314138	0.511753	-5.20078	0.0366026
3.59	0	0	0	0	0	0	0	0	0	-185.441	1165.43	-46.2396	0.976553	0	-0.314418	1.10947	-6.9726	0.276645
3.6	0	0	0	0	0	0	0	0	0	-212.792	1070.47	-115.008	0.95474	0	-0.316817	1.41756	-7.13117	0.766153
3.61	0	0	0	0	0	0	0	0	0	-211.469	1086.92	-83.3141	0.917091	0	-0.320396	1.2219	-6.28041	0.481403
3.62	0	0	0	0	0	0	0	0	0	-181.72	1192.41	30.9216	0.87114	0	-0.323176	0.839401	-5.508	-0.142833
3.63	0	0	0	0	0	0	0	0	0	-127.48	1298.74	64.4611	0.829714	0	-0.325079	0.505425	-5.14914	-0.255571
3.64	0	0	0	0	0	0	0	0	0	-74.8976	1357.77	9.1233	0.796441	0	-0.326889	0.244877	-4.43921	-0.0298285
3.65	0	0	0	0	0	0	0	0	0	-40.6633	1378.12	-10.6003	0.767672	0	-0.328563	0.0805541	-2.73006	0.0209991
3.66	0	0	0	0	0	0	0	0	0	-10.3659	1380.54	20.4635	0.738873	0	-0.329817	0.00497007	-0.661917	-0.00981152
3.67	0	0	0	0	0	0	0	0	0	25.6742	1364.89	28.0992	0.707232	0	-0.33052	0.00880682	0.468186	0.00963865
3.68	0	0	0	0	0	0	0	0	0	63.7325	1325.03	7.56172	0.671837	0	-0.330529	-0.00645591	-0.134222	-0.00076598
3.69	0	0	0	0	0	0	0	0	0	101.995	1260.1	-8.92484	0.632682	0	-0.329721	-0.166514	-2.05719	0.0145704
3.7	0	0	0	0	0	0	0	0	0	143.709	1160.49	-20.9482	0.589964	0	-0.328311	-0.465816	-3.76159	0.0679011
3.71	0	0	0	0	0	0	0	0	0	188.467	1012.06	-34.0861	0.543934	0	-0.32679	-0.66056	-3.5472	0.119469
3.72	0	0	0	0	0	0	0	0	0	218.066	818.253	-45.8879	0.495439	0	-0.325397	-0.282598	-1.0604	0.0594674
